<?xml version="1.0" encoding="utf-8"?>
<!-- Generator: Adobe Illustrator 24.3.0, SVG Export Plug-In . SVG Version: 6.00 Build 0)  -->
<svg version="1.1" id="Layer_1" xmlns="http://www.w3.org/2000/svg" xmlns:xlink="http://www.w3.org/1999/xlink" x="0px" y="0px"
	 viewBox="0 0 500 500" style="enable-background:new 0 0 500 500;" xml:space="preserve">
<style type="text/css">
</style>
<g>
	<g>
		<g>
			<path fill="#FFFFFF" d="M345.95,139.5l-0.07-0.17c-11.04-25.39-23-50.62-35.57-74.99l-2.6-5.05l-3.34,4.59
				c-9.97,13.72-21.89,29-33.41,43.79c-12.65,16.22-25.73,33-36.6,48.14l-1.16,1.61l0.79,1.82c5.72,13.28,13.41,25.28,20.85,36.88
				c7.29,11.37,14.83,23.13,20.34,35.9c4.48,10.39,4.18,26.27-0.72,37.76c-0.27,0.65-0.46,1.19-0.54,1.61l-3.01,15.93l9.32-13.26
				c7.72-10.99,15.71-22.58,23.44-33.79c11.7-16.96,23.8-34.51,35.57-50.84c2.64-3.67,4.67-7.2,6.2-10.79
				C350.78,166.07,350.96,152.9,345.95,139.5z M338.99,175.9c-1.32,3.11-3.09,6.19-5.43,9.44c-11.81,16.39-23.93,33.96-35.65,50.96
				c-4.21,6.1-8.5,12.32-12.78,18.49c0.76-9.08-0.4-18.3-3.52-25.54c-5.74-13.3-13.43-25.3-20.88-36.91
				c-6.94-10.83-14.1-22-19.52-34.06c10.56-14.61,23.11-30.71,35.27-46.31c10.3-13.2,20.9-26.81,30.19-39.39
				c11.54,22.64,22.55,45.98,32.76,69.46C343.81,153.83,343.67,164.91,338.99,175.9z"/>
		</g>
		<g>
			<path fill="#FFFFFF" d="M286.38,339.54c-8.95-19.86-19.39-38.55-29.49-56.63c-10.64-19.07-21.65-38.78-30.79-59.69
				c-5.51-12.6-6.52-26.45-2.84-38.98c0.21-0.73,0.44-1.46,0.68-2.19l7.73-23.28l-13.93,20.19c-18.73,27.14-38.03,54.43-57.36,81.12
				c-2.26,3.12-4.11,6.28-5.48,9.39l-0.18,0.39c-5.98,13.76-5.7,29.81,0.77,44.05l57.62,126.8l3.55-4.74
				c7.02-9.41,14.53-19.34,22.49-29.85c16.16-21.35,32.87-43.42,46.89-63.11l1.16-1.64L286.38,339.54z M233.57,401.89
				c-6.64,8.78-12.98,17.15-18.98,25.15l-52.72-116.03c-5.65-12.43-5.92-26.42-0.73-38.36l0.15-0.34c1.18-2.67,2.78-5.4,4.76-8.13
				c16.17-22.31,32.31-45.05,48.11-67.77c-0.49,9.94,1.37,20.1,5.52,29.61c9.28,21.22,20.37,41.09,31.1,60.3
				c9.72,17.39,19.75,35.36,28.39,54.27C265.45,359.78,249.25,381.18,233.57,401.89z"/>
		</g>
	</g>
</g>
</svg>
